<mxfile host="65bd71144e">
    <diagram id="UwQSBcfMgg8g4CbXBhvF" name="PÃ¡gina-1">
        <mxGraphModel dx="6113" dy="3840" grid="1" gridSize="10" guides="1" tooltips="1" connect="1" arrows="1" fold="1" page="1" pageScale="1" pageWidth="850" pageHeight="1100" math="0" shadow="0">
            <root>
                <mxCell id="0"/>
                <mxCell id="1" parent="0"/>
                <mxCell id="106" value="" style="edgeStyle=none;html=1;" parent="1" source="2" target="104" edge="1">
                    <mxGeometry relative="1" as="geometry"/>
                </mxCell>
                <mxCell id="2" value="INICIO" style="ellipse;whiteSpace=wrap;html=1;fillColor=#008a00;fontColor=#ffffff;strokeColor=#005700;" parent="1" vertex="1">
                    <mxGeometry x="-190" y="-890" width="120" height="80" as="geometry"/>
                </mxCell>
                <mxCell id="6" value="" style="edgeStyle=none;html=1;exitX=0.5;exitY=1;exitDx=0;exitDy=0;" parent="1" source="107" edge="1">
                    <mxGeometry relative="1" as="geometry">
                        <mxPoint x="-130" y="-490" as="targetPoint"/>
                        <mxPoint x="-130" y="-550" as="sourcePoint"/>
                    </mxGeometry>
                </mxCell>
                <mxCell id="14" value="IMC&amp;lt;16" style="rhombus;whiteSpace=wrap;html=1;fillColor=#0050ef;fontColor=#ffffff;strokeColor=#001DBC;" parent="1" vertex="1">
                    <mxGeometry x="-170" y="-490" width="80" height="80" as="geometry"/>
                </mxCell>
                <mxCell id="15" value="" style="endArrow=none;html=1;" parent="1" edge="1">
                    <mxGeometry width="50" height="50" relative="1" as="geometry">
                        <mxPoint x="-90" y="-450.5" as="sourcePoint"/>
                        <mxPoint x="60" y="-450.5" as="targetPoint"/>
                    </mxGeometry>
                </mxCell>
                <mxCell id="16" value="" style="edgeStyle=none;html=1;" parent="1" edge="1">
                    <mxGeometry relative="1" as="geometry">
                        <mxPoint x="60" y="-450" as="sourcePoint"/>
                        <mxPoint x="60" y="-390" as="targetPoint"/>
                    </mxGeometry>
                </mxCell>
                <mxCell id="17" value="DIAGNOSTICO=Criterio de ingreso en hospital." style="rounded=0;whiteSpace=wrap;html=1;fillColor=#6a00ff;fontColor=#ffffff;strokeColor=#3700CC;" parent="1" vertex="1">
                    <mxGeometry x="10" y="-400" width="130" height="60" as="geometry"/>
                </mxCell>
                <mxCell id="18" value="" style="endArrow=none;html=1;" parent="1" edge="1">
                    <mxGeometry width="50" height="50" relative="1" as="geometry">
                        <mxPoint x="-320" y="-450.5" as="sourcePoint"/>
                        <mxPoint x="-170" y="-450.5" as="targetPoint"/>
                    </mxGeometry>
                </mxCell>
                <mxCell id="19" value="" style="edgeStyle=none;html=1;" parent="1" edge="1">
                    <mxGeometry relative="1" as="geometry">
                        <mxPoint x="-320" y="-450" as="sourcePoint"/>
                        <mxPoint x="-320" y="-380" as="targetPoint"/>
                    </mxGeometry>
                </mxCell>
                <mxCell id="20" value="16&amp;lt;= IMC &amp;lt;=17" style="rhombus;whiteSpace=wrap;html=1;fillColor=#a20025;fontColor=#ffffff;strokeColor=#6F0000;" parent="1" vertex="1">
                    <mxGeometry x="-360" y="-380" width="90" height="90" as="geometry"/>
                </mxCell>
                <mxCell id="21" value="DIAGNOSTICO=Infrapeso" style="rounded=0;whiteSpace=wrap;html=1;fillColor=#fa6800;fontColor=#000000;strokeColor=#C73500;" parent="1" vertex="1">
                    <mxGeometry x="-230" y="-250" width="140" height="60" as="geometry"/>
                </mxCell>
                <mxCell id="22" value="" style="endArrow=none;html=1;" parent="1" edge="1">
                    <mxGeometry width="50" height="50" relative="1" as="geometry">
                        <mxPoint x="-270" y="-330" as="sourcePoint"/>
                        <mxPoint x="-160" y="-329.5" as="targetPoint"/>
                        <Array as="points">
                            <mxPoint x="-210" y="-329.5"/>
                        </Array>
                    </mxGeometry>
                </mxCell>
                <mxCell id="24" value="" style="endArrow=none;html=1;" parent="1" edge="1">
                    <mxGeometry width="50" height="50" relative="1" as="geometry">
                        <mxPoint x="-470" y="-329.75" as="sourcePoint"/>
                        <mxPoint x="-360" y="-330" as="targetPoint"/>
                    </mxGeometry>
                </mxCell>
                <mxCell id="26" value="" style="edgeStyle=none;html=1;" parent="1" edge="1">
                    <mxGeometry relative="1" as="geometry">
                        <mxPoint x="-160.5" y="-330" as="sourcePoint"/>
                        <mxPoint x="-160.5" y="-250" as="targetPoint"/>
                    </mxGeometry>
                </mxCell>
                <mxCell id="28" value="" style="edgeStyle=none;html=1;" parent="1" edge="1">
                    <mxGeometry relative="1" as="geometry">
                        <mxPoint x="-470" y="-330" as="sourcePoint"/>
                        <mxPoint x="-470" y="-250" as="targetPoint"/>
                    </mxGeometry>
                </mxCell>
                <mxCell id="29" value="17&amp;lt;= IMC &amp;lt;=18" style="rhombus;whiteSpace=wrap;html=1;fillColor=#a20025;fontColor=#ffffff;strokeColor=#6F0000;" parent="1" vertex="1">
                    <mxGeometry x="-510" y="-250" width="90" height="90" as="geometry"/>
                </mxCell>
                <mxCell id="30" value="" style="endArrow=none;html=1;" parent="1" edge="1">
                    <mxGeometry width="50" height="50" relative="1" as="geometry">
                        <mxPoint x="-420" y="-205.5" as="sourcePoint"/>
                        <mxPoint x="-310" y="-205" as="targetPoint"/>
                        <Array as="points">
                            <mxPoint x="-360" y="-205"/>
                        </Array>
                    </mxGeometry>
                </mxCell>
                <mxCell id="31" value="" style="edgeStyle=none;html=1;" parent="1" edge="1">
                    <mxGeometry relative="1" as="geometry">
                        <mxPoint x="-310" y="-210" as="sourcePoint"/>
                        <mxPoint x="-310" y="-130" as="targetPoint"/>
                    </mxGeometry>
                </mxCell>
                <mxCell id="32" value="DIAGNOSTICO=Bajo peso" style="rounded=0;whiteSpace=wrap;html=1;fillColor=#e51400;fontColor=#ffffff;strokeColor=#B20000;" parent="1" vertex="1">
                    <mxGeometry x="-380" y="-130" width="140" height="60" as="geometry"/>
                </mxCell>
                <mxCell id="33" value="" style="endArrow=none;html=1;" parent="1" edge="1">
                    <mxGeometry width="50" height="50" relative="1" as="geometry">
                        <mxPoint x="-620" y="-205.5" as="sourcePoint"/>
                        <mxPoint x="-510" y="-205" as="targetPoint"/>
                        <Array as="points">
                            <mxPoint x="-560" y="-205"/>
                        </Array>
                    </mxGeometry>
                </mxCell>
                <mxCell id="34" value="" style="edgeStyle=none;html=1;" parent="1" edge="1">
                    <mxGeometry relative="1" as="geometry">
                        <mxPoint x="-620" y="-210" as="sourcePoint"/>
                        <mxPoint x="-620" y="-130" as="targetPoint"/>
                    </mxGeometry>
                </mxCell>
                <mxCell id="36" value="18&amp;lt;= IMC &amp;lt;=25" style="rhombus;whiteSpace=wrap;html=1;fillColor=#d80073;fontColor=#ffffff;strokeColor=#A50040;" parent="1" vertex="1">
                    <mxGeometry x="-660" y="-130" width="90" height="90" as="geometry"/>
                </mxCell>
                <mxCell id="37" value="" style="endArrow=none;html=1;" parent="1" edge="1">
                    <mxGeometry width="50" height="50" relative="1" as="geometry">
                        <mxPoint x="-570" y="-85.48000000000002" as="sourcePoint"/>
                        <mxPoint x="-460" y="-84.98000000000002" as="targetPoint"/>
                        <Array as="points">
                            <mxPoint x="-510" y="-84.98000000000002"/>
                        </Array>
                    </mxGeometry>
                </mxCell>
                <mxCell id="38" value="" style="edgeStyle=none;html=1;" parent="1" edge="1">
                    <mxGeometry relative="1" as="geometry">
                        <mxPoint x="-460" y="-90" as="sourcePoint"/>
                        <mxPoint x="-460" y="-10" as="targetPoint"/>
                    </mxGeometry>
                </mxCell>
                <mxCell id="39" value="" style="endArrow=none;html=1;" parent="1" edge="1">
                    <mxGeometry width="50" height="50" relative="1" as="geometry">
                        <mxPoint x="-770" y="-85.48000000000002" as="sourcePoint"/>
                        <mxPoint x="-660" y="-84.98000000000002" as="targetPoint"/>
                        <Array as="points">
                            <mxPoint x="-710" y="-84.98000000000002"/>
                        </Array>
                    </mxGeometry>
                </mxCell>
                <mxCell id="40" value="" style="edgeStyle=none;html=1;" parent="1" edge="1">
                    <mxGeometry relative="1" as="geometry">
                        <mxPoint x="-770" y="-90" as="sourcePoint"/>
                        <mxPoint x="-770" y="-10" as="targetPoint"/>
                    </mxGeometry>
                </mxCell>
                <mxCell id="41" value="DIAGNOSTICO=peso normal(saludable)" style="rounded=0;whiteSpace=wrap;html=1;fillColor=#fa6800;fontColor=#000000;strokeColor=#C73500;" parent="1" vertex="1">
                    <mxGeometry x="-535" y="-10" width="140" height="60" as="geometry"/>
                </mxCell>
                <mxCell id="42" value="25&amp;lt;= IMC &amp;lt;=30" style="rhombus;whiteSpace=wrap;html=1;fillColor=#6a00ff;fontColor=#ffffff;strokeColor=#3700CC;" parent="1" vertex="1">
                    <mxGeometry x="-800" y="-10" width="90" height="90" as="geometry"/>
                </mxCell>
                <mxCell id="51" value="" style="endArrow=none;html=1;" parent="1" edge="1">
                    <mxGeometry width="50" height="50" relative="1" as="geometry">
                        <mxPoint x="-720" y="34.51999999999998" as="sourcePoint"/>
                        <mxPoint x="-610" y="35.01999999999998" as="targetPoint"/>
                        <Array as="points">
                            <mxPoint x="-660" y="35.01999999999998"/>
                        </Array>
                    </mxGeometry>
                </mxCell>
                <mxCell id="52" value="" style="edgeStyle=none;html=1;" parent="1" edge="1">
                    <mxGeometry relative="1" as="geometry">
                        <mxPoint x="-610" y="30" as="sourcePoint"/>
                        <mxPoint x="-610" y="110" as="targetPoint"/>
                    </mxGeometry>
                </mxCell>
                <mxCell id="53" value="" style="endArrow=none;html=1;" parent="1" edge="1">
                    <mxGeometry width="50" height="50" relative="1" as="geometry">
                        <mxPoint x="-920" y="34.51999999999998" as="sourcePoint"/>
                        <mxPoint x="-810" y="35.01999999999998" as="targetPoint"/>
                        <Array as="points">
                            <mxPoint x="-860" y="35.01999999999998"/>
                        </Array>
                    </mxGeometry>
                </mxCell>
                <mxCell id="54" value="" style="edgeStyle=none;html=1;" parent="1" edge="1">
                    <mxGeometry relative="1" as="geometry">
                        <mxPoint x="-920" y="30" as="sourcePoint"/>
                        <mxPoint x="-920" y="110" as="targetPoint"/>
                    </mxGeometry>
                </mxCell>
                <mxCell id="55" value="DIAGNOSTICO=Sobrepeso (obesidad de grado I)" style="rounded=0;whiteSpace=wrap;html=1;fillColor=#e51400;fontColor=#ffffff;strokeColor=#B20000;" parent="1" vertex="1">
                    <mxGeometry x="-680" y="110" width="150" height="60" as="geometry"/>
                </mxCell>
                <mxCell id="56" value="30&amp;lt;= IMC &amp;lt;=35" style="rhombus;whiteSpace=wrap;html=1;fillColor=#e51400;fontColor=#ffffff;strokeColor=#B20000;" parent="1" vertex="1">
                    <mxGeometry x="-960" y="110" width="90" height="90" as="geometry"/>
                </mxCell>
                <mxCell id="57" value="" style="endArrow=none;html=1;" parent="1" edge="1">
                    <mxGeometry width="50" height="50" relative="1" as="geometry">
                        <mxPoint x="-870" y="154.51999999999998" as="sourcePoint"/>
                        <mxPoint x="-760" y="155.01999999999998" as="targetPoint"/>
                        <Array as="points">
                            <mxPoint x="-810" y="155.01999999999998"/>
                        </Array>
                    </mxGeometry>
                </mxCell>
                <mxCell id="58" value="" style="edgeStyle=none;html=1;" parent="1" edge="1">
                    <mxGeometry relative="1" as="geometry">
                        <mxPoint x="-760" y="150" as="sourcePoint"/>
                        <mxPoint x="-760" y="230" as="targetPoint"/>
                    </mxGeometry>
                </mxCell>
                <mxCell id="59" value="" style="endArrow=none;html=1;" parent="1" edge="1">
                    <mxGeometry width="50" height="50" relative="1" as="geometry">
                        <mxPoint x="-1070" y="154.51999999999998" as="sourcePoint"/>
                        <mxPoint x="-960" y="155.01999999999998" as="targetPoint"/>
                        <Array as="points">
                            <mxPoint x="-1010" y="155.01999999999998"/>
                        </Array>
                    </mxGeometry>
                </mxCell>
                <mxCell id="60" value="" style="edgeStyle=none;html=1;" parent="1" edge="1">
                    <mxGeometry relative="1" as="geometry">
                        <mxPoint x="-1070" y="150" as="sourcePoint"/>
                        <mxPoint x="-1070" y="230" as="targetPoint"/>
                    </mxGeometry>
                </mxCell>
                <mxCell id="61" value="DIAGNOSTICO=Sobrepeso crÃ³nico (obesidad de grado II)" style="rounded=0;whiteSpace=wrap;html=1;fillColor=#fa6800;fontColor=#000000;strokeColor=#C73500;" parent="1" vertex="1">
                    <mxGeometry x="-830" y="230" width="150" height="60" as="geometry"/>
                </mxCell>
                <mxCell id="62" value="35&amp;lt;= IMC &amp;lt;=40" style="rhombus;whiteSpace=wrap;html=1;fillColor=#fa6800;fontColor=#000000;strokeColor=#C73500;" parent="1" vertex="1">
                    <mxGeometry x="-1120" y="230" width="90" height="90" as="geometry"/>
                </mxCell>
                <mxCell id="63" value="" style="endArrow=none;html=1;" parent="1" edge="1">
                    <mxGeometry width="50" height="50" relative="1" as="geometry">
                        <mxPoint x="-1030" y="274.52" as="sourcePoint"/>
                        <mxPoint x="-920" y="275.02" as="targetPoint"/>
                        <Array as="points">
                            <mxPoint x="-970" y="275.02"/>
                        </Array>
                    </mxGeometry>
                </mxCell>
                <mxCell id="64" value="" style="edgeStyle=none;html=1;" parent="1" edge="1">
                    <mxGeometry relative="1" as="geometry">
                        <mxPoint x="-920" y="270" as="sourcePoint"/>
                        <mxPoint x="-920" y="350" as="targetPoint"/>
                    </mxGeometry>
                </mxCell>
                <mxCell id="65" value="" style="endArrow=none;html=1;" parent="1" edge="1">
                    <mxGeometry width="50" height="50" relative="1" as="geometry">
                        <mxPoint x="-1230" y="274.52" as="sourcePoint"/>
                        <mxPoint x="-1120" y="275.02" as="targetPoint"/>
                        <Array as="points">
                            <mxPoint x="-1170" y="275.02"/>
                        </Array>
                    </mxGeometry>
                </mxCell>
                <mxCell id="66" value="" style="edgeStyle=none;html=1;" parent="1" edge="1">
                    <mxGeometry relative="1" as="geometry">
                        <mxPoint x="-1230" y="270" as="sourcePoint"/>
                        <mxPoint x="-1230" y="350" as="targetPoint"/>
                    </mxGeometry>
                </mxCell>
                <mxCell id="67" value="DIAGNOSTICO=&lt;span style=&quot;background-color: initial;&quot;&gt;Obesidad premÃ³rbida (obesidad de grado&amp;nbsp;&lt;/span&gt;&lt;span style=&quot;background-color: initial;&quot;&gt;III)&lt;/span&gt;&lt;span style=&quot;background-color: initial;&quot;&gt;&lt;br&gt;&lt;/span&gt;" style="rounded=0;whiteSpace=wrap;html=1;fillColor=#e51400;fontColor=#ffffff;strokeColor=#B20000;" parent="1" vertex="1">
                    <mxGeometry x="-1000" y="350" width="170" height="60" as="geometry"/>
                </mxCell>
                <mxCell id="74" value="DIAGNOSTICO=&lt;span style=&quot;background-color: initial;&quot;&gt;Obesidad mÃ³rbida (obesidad de grado&amp;nbsp;&lt;/span&gt;&lt;span style=&quot;background-color: initial;&quot;&gt;IV)&lt;/span&gt;&lt;span style=&quot;background-color: initial;&quot;&gt;&lt;br&gt;&lt;/span&gt;" style="rounded=0;whiteSpace=wrap;html=1;fillColor=#e3c800;fontColor=#000000;strokeColor=#B09500;" parent="1" vertex="1">
                    <mxGeometry x="-1300" y="350" width="160" height="60" as="geometry"/>
                </mxCell>
                <mxCell id="75" value="" style="endArrow=none;html=1;" parent="1" edge="1">
                    <mxGeometry width="50" height="50" relative="1" as="geometry">
                        <mxPoint x="60" y="550" as="sourcePoint"/>
                        <mxPoint x="60" y="-330" as="targetPoint"/>
                    </mxGeometry>
                </mxCell>
                <mxCell id="76" value="" style="endArrow=none;html=1;" parent="1" edge="1">
                    <mxGeometry width="50" height="50" relative="1" as="geometry">
                        <mxPoint x="-160" y="550" as="sourcePoint"/>
                        <mxPoint x="-160" y="-190" as="targetPoint"/>
                    </mxGeometry>
                </mxCell>
                <mxCell id="77" value="" style="endArrow=none;html=1;" parent="1" edge="1">
                    <mxGeometry width="50" height="50" relative="1" as="geometry">
                        <mxPoint x="-310" y="550" as="sourcePoint"/>
                        <mxPoint x="-310.00000000000045" y="-70" as="targetPoint"/>
                    </mxGeometry>
                </mxCell>
                <mxCell id="78" value="" style="endArrow=none;html=1;" parent="1" edge="1">
                    <mxGeometry width="50" height="50" relative="1" as="geometry">
                        <mxPoint x="-610" y="550" as="sourcePoint"/>
                        <mxPoint x="-610.0000000000005" y="170" as="targetPoint"/>
                    </mxGeometry>
                </mxCell>
                <mxCell id="79" value="" style="endArrow=none;html=1;" parent="1" edge="1">
                    <mxGeometry width="50" height="50" relative="1" as="geometry">
                        <mxPoint x="-460" y="550" as="sourcePoint"/>
                        <mxPoint x="-460.00000000000045" y="50" as="targetPoint"/>
                    </mxGeometry>
                </mxCell>
                <mxCell id="80" value="" style="endArrow=none;html=1;" parent="1" edge="1">
                    <mxGeometry width="50" height="50" relative="1" as="geometry">
                        <mxPoint x="-920" y="550" as="sourcePoint"/>
                        <mxPoint x="-920.0000000000005" y="410" as="targetPoint"/>
                    </mxGeometry>
                </mxCell>
                <mxCell id="81" value="" style="endArrow=none;html=1;" parent="1" edge="1">
                    <mxGeometry width="50" height="50" relative="1" as="geometry">
                        <mxPoint x="-757" y="550" as="sourcePoint"/>
                        <mxPoint x="-756.6700000000004" y="290" as="targetPoint"/>
                    </mxGeometry>
                </mxCell>
                <mxCell id="82" value="" style="endArrow=none;html=1;" parent="1" edge="1">
                    <mxGeometry width="50" height="50" relative="1" as="geometry">
                        <mxPoint x="-1230" y="550" as="sourcePoint"/>
                        <mxPoint x="-1230.0000000000005" y="410" as="targetPoint"/>
                    </mxGeometry>
                </mxCell>
                <mxCell id="83" value="" style="endArrow=none;html=1;" parent="1" edge="1">
                    <mxGeometry width="50" height="50" relative="1" as="geometry">
                        <mxPoint x="-1230" y="550" as="sourcePoint"/>
                        <mxPoint x="60" y="550" as="targetPoint"/>
                    </mxGeometry>
                </mxCell>
                <mxCell id="85" value="" style="endArrow=classic;html=1;" parent="1" edge="1">
                    <mxGeometry width="50" height="50" relative="1" as="geometry">
                        <mxPoint x="-490" y="550" as="sourcePoint"/>
                        <mxPoint x="-490" y="670" as="targetPoint"/>
                    </mxGeometry>
                </mxCell>
                <mxCell id="88" value="" style="edgeStyle=none;html=1;" parent="1" source="86" target="87" edge="1">
                    <mxGeometry relative="1" as="geometry"/>
                </mxCell>
                <mxCell id="86" value="DIAGNOSTICO" style="shape=document;whiteSpace=wrap;html=1;boundedLbl=1;size=0.5;fillColor=#1ba1e2;fontColor=#ffffff;strokeColor=#006EAF;" parent="1" vertex="1">
                    <mxGeometry x="-560" y="670" width="140" height="80" as="geometry"/>
                </mxCell>
                <mxCell id="87" value="FIN" style="rounded=0;whiteSpace=wrap;html=1;fillColor=#60a917;fontColor=#ffffff;strokeColor=#2D7600;" parent="1" vertex="1">
                    <mxGeometry x="-550" y="800" width="120" height="60" as="geometry"/>
                </mxCell>
                <mxCell id="89" value="true" style="text;html=1;strokeColor=none;fillColor=none;align=center;verticalAlign=middle;whiteSpace=wrap;rounded=0;" parent="1" vertex="1">
                    <mxGeometry x="-40" y="-500" width="60" height="30" as="geometry"/>
                </mxCell>
                <mxCell id="90" value="false" style="text;html=1;strokeColor=none;fillColor=none;align=center;verticalAlign=middle;whiteSpace=wrap;rounded=0;" parent="1" vertex="1">
                    <mxGeometry x="-280" y="-500" width="60" height="30" as="geometry"/>
                </mxCell>
                <mxCell id="91" value="true" style="text;html=1;strokeColor=none;fillColor=none;align=center;verticalAlign=middle;whiteSpace=wrap;rounded=0;" parent="1" vertex="1">
                    <mxGeometry x="-260" y="-370" width="60" height="30" as="geometry"/>
                </mxCell>
                <mxCell id="92" value="true" style="text;html=1;strokeColor=none;fillColor=none;align=center;verticalAlign=middle;whiteSpace=wrap;rounded=0;" parent="1" vertex="1">
                    <mxGeometry x="-400" y="-250" width="60" height="30" as="geometry"/>
                </mxCell>
                <mxCell id="93" value="true" style="text;html=1;strokeColor=none;fillColor=none;align=center;verticalAlign=middle;whiteSpace=wrap;rounded=0;" parent="1" vertex="1">
                    <mxGeometry x="-550" y="-130" width="60" height="30" as="geometry"/>
                </mxCell>
                <mxCell id="94" value="true" style="text;html=1;strokeColor=none;fillColor=none;align=center;verticalAlign=middle;whiteSpace=wrap;rounded=0;" parent="1" vertex="1">
                    <mxGeometry x="-710" y="-10" width="60" height="30" as="geometry"/>
                </mxCell>
                <mxCell id="95" value="true" style="text;html=1;strokeColor=none;fillColor=none;align=center;verticalAlign=middle;whiteSpace=wrap;rounded=0;" parent="1" vertex="1">
                    <mxGeometry x="-855" y="110" width="60" height="30" as="geometry"/>
                </mxCell>
                <mxCell id="96" value="true" style="text;html=1;strokeColor=none;fillColor=none;align=center;verticalAlign=middle;whiteSpace=wrap;rounded=0;" parent="1" vertex="1">
                    <mxGeometry x="-1010" y="240" width="60" height="30" as="geometry"/>
                </mxCell>
                <mxCell id="97" value="false" style="text;html=1;strokeColor=none;fillColor=none;align=center;verticalAlign=middle;whiteSpace=wrap;rounded=0;" parent="1" vertex="1">
                    <mxGeometry x="-450" y="-370" width="60" height="30" as="geometry"/>
                </mxCell>
                <mxCell id="98" value="false" style="text;html=1;strokeColor=none;fillColor=none;align=center;verticalAlign=middle;whiteSpace=wrap;rounded=0;" parent="1" vertex="1">
                    <mxGeometry x="-590" y="-250" width="60" height="30" as="geometry"/>
                </mxCell>
                <mxCell id="99" value="false" style="text;html=1;strokeColor=none;fillColor=none;align=center;verticalAlign=middle;whiteSpace=wrap;rounded=0;" parent="1" vertex="1">
                    <mxGeometry x="-750" y="-130" width="60" height="30" as="geometry"/>
                </mxCell>
                <mxCell id="100" value="false" style="text;html=1;strokeColor=none;fillColor=none;align=center;verticalAlign=middle;whiteSpace=wrap;rounded=0;" parent="1" vertex="1">
                    <mxGeometry x="-890" y="-10" width="60" height="30" as="geometry"/>
                </mxCell>
                <mxCell id="101" value="false" style="text;html=1;strokeColor=none;fillColor=none;align=center;verticalAlign=middle;whiteSpace=wrap;rounded=0;" parent="1" vertex="1">
                    <mxGeometry x="-1050" y="110" width="60" height="30" as="geometry"/>
                </mxCell>
                <mxCell id="102" value="false" style="text;html=1;strokeColor=none;fillColor=none;align=center;verticalAlign=middle;whiteSpace=wrap;rounded=0;" parent="1" vertex="1">
                    <mxGeometry x="-1200" y="240" width="60" height="30" as="geometry"/>
                </mxCell>
                <mxCell id="108" value="" style="edgeStyle=none;html=1;fillColor=#60a917;strokeColor=#2D7600;" parent="1" target="107" edge="1">
                    <mxGeometry relative="1" as="geometry">
                        <mxPoint x="-130" y="-690" as="sourcePoint"/>
                    </mxGeometry>
                </mxCell>
                <mxCell id="104" value="p=peso&lt;br&gt;a=altura" style="shape=parallelogram;perimeter=parallelogramPerimeter;whiteSpace=wrap;html=1;fixedSize=1;fillColor=#60a917;fontColor=#ffffff;strokeColor=#2D7600;" parent="1" vertex="1">
                    <mxGeometry x="-190" y="-750" width="120" height="60" as="geometry"/>
                </mxCell>
                <mxCell id="107" value="&lt;span style=&quot;color: rgb(255, 255, 255);&quot;&gt;IMC=peso[kg] / altura**2 [m])&lt;/span&gt;" style="rounded=0;whiteSpace=wrap;html=1;fillColor=#1ba1e2;fontColor=#ffffff;strokeColor=#006EAF;" parent="1" vertex="1">
                    <mxGeometry x="-190" y="-620" width="120" height="60" as="geometry"/>
                </mxCell>
            </root>
        </mxGraphModel>
    </diagram>
</mxfile>